<svg xmlns="http://www.w3.org/2000/svg" width="1440" height="420" viewBox="0 0 1440 420" role="img" aria-label="SnapMD 闪阅">
  <defs>
    <linearGradient id="paper" x1="130" y1="68" x2="348" y2="330" gradientUnits="userSpaceOnUse">
      <stop stop-color="#ffffff"/>
      <stop offset="1" stop-color="#dfe5f2"/>
    </linearGradient>
    <linearGradient id="bolt" x1="190" y1="260" x2="366" y2="158" gradientUnits="userSpaceOnUse">
      <stop stop-color="#2638ff"/>
      <stop offset="0.56" stop-color="#3378ff"/>
      <stop offset="1" stop-color="#4df4df"/>
    </linearGradient>
    <filter id="softShadow" x="-20%" y="-20%" width="140%" height="140%">
      <feDropShadow dx="0" dy="20" stdDeviation="22" flood-color="#10151d" flood-opacity="0.24"/>
    </filter>
  </defs>
  <rect width="1440" height="420" rx="48" fill="#f7f9fc"/>
  <g filter="url(#softShadow)">
    <rect x="92" y="70" width="278" height="278" rx="64" fill="#151a23"/>
    <path d="M160 112h138l50 50v146c0 18-14 32-32 32H160c-18 0-32-14-32-32V144c0-18 14-32 32-32Z" fill="url(#paper)"/>
    <path d="M298 112v38c0 18 14 32 32 32h38l-70-70Z" fill="#cdd6ea"/>
    <path d="M252 154 206 210h55l-50 82 128-112h-61l39-26h-65Z" fill="url(#bolt)"/>
    <path d="M178 184 154 210l24 26M326 184l24 26-24 26" fill="none" stroke="#8d95a5" stroke-width="13" stroke-linecap="round" stroke-linejoin="round"/>
    <path d="M382 167l13 31 31 13-31 13-13 31-13-31-31-13 31-13 13-31Z" fill="#4df4df"/>
  </g>
  <text x="430" y="238" fill="#171c25" font-family="Inter, Segoe UI, Arial, sans-serif" font-size="126" font-weight="800" letter-spacing="0">Snap<tspan fill="#315cff">MD</tspan></text>
  <text x="1010" y="238" fill="#171c25" font-family="Microsoft YaHei UI, PingFang SC, Noto Sans CJK SC, sans-serif" font-size="112" font-weight="800" letter-spacing="0">闪阅</text>
  <text x="438" y="300" fill="#697386" font-family="Inter, Segoe UI, Arial, sans-serif" font-size="34" font-weight="600" letter-spacing="0">Markdown preview, instantly.</text>
</svg>
